<svg width="24" height="24" viewBox="0 0 24 24" fill="none" xmlns="http://www.w3.org/2000/svg">
<path fill-rule="evenodd" clip-rule="evenodd" d="M3 2.5C3 2.22386 3.22991 2 3.51351 2H12.4865C12.7701 2 13 2.22386 13 2.5C13 2.77614 12.7701 3 12.4865 3H3.51351C3.22991 3 3 2.77614 3 2.5Z" fill="#8D8D8D"/>
<path fill-rule="evenodd" clip-rule="evenodd" d="M3 6.5C3 6.22386 3.22991 6 3.51351 6H12.4865C12.7701 6 13 6.22386 13 6.5C13 6.77614 12.7701 7 12.4865 7H3.51351C3.22991 7 3 6.77614 3 6.5Z" fill="#8D8D8D"/>
<path fill-rule="evenodd" clip-rule="evenodd" d="M3 14.5C3 14.2239 3.22991 14 3.51351 14H20.4865C20.7701 14 21 14.2239 21 14.5C21 14.7761 20.7701 15 20.4865 15H3.51351C3.22991 15 3 14.7761 3 14.5Z" fill="#8D8D8D"/>
<path fill-rule="evenodd" clip-rule="evenodd" d="M3 18.5C3 18.2239 3.22991 18 3.51351 18H20.4865C20.7701 18 21 18.2239 21 18.5C21 18.7761 20.7701 19 20.4865 19H3.51351C3.22991 19 3 18.7761 3 18.5Z" fill="#8D8D8D"/>
<path fill-rule="evenodd" clip-rule="evenodd" d="M3 10.5C3 10.2239 3.22991 10 3.51351 10H12.4865C12.7701 10 13 10.2239 13 10.5C13 10.7761 12.7701 11 12.4865 11H3.51351C3.22991 11 3 10.7761 3 10.5Z" fill="#8D8D8D"/>
<path fill-rule="evenodd" clip-rule="evenodd" d="M3 22.5C3 22.2239 3.22991 22 3.51351 22H10.4865C10.7701 22 11 22.2239 11 22.5C11 22.7761 10.7701 23 10.4865 23H3.51351C3.22991 23 3 22.7761 3 22.5Z" fill="#8D8D8D"/>
<path d="M14 3C14 2.44772 14.3482 2 14.7778 2H20.2222C20.6518 2 21 2.44772 21 3V10C21 10.5523 20.6518 11 20.2222 11H14.7778C14.3482 11 14 10.5523 14 10V3Z" fill="#8D8D8D"/>
</svg>
