<svg width="24" height="19" viewBox="0 0 24 19" fill="none" xmlns="http://www.w3.org/2000/svg">
<path fill-rule="evenodd" clip-rule="evenodd" d="M22 1H2C1.44772 1 1 1.44772 1 2V14L6.2942 9.14698C6.68887 8.78521 7.29845 8.79845 7.67703 9.17703L11.2929 12.7929C11.6834 13.1834 12.3166 13.1834 12.7071 12.7929L12.7929 12.7071C13.1834 12.3166 13.1834 11.6834 12.7929 11.2929L12.2071 10.7071C11.8166 10.3166 11.8166 9.68342 12.2071 9.29289L15.3186 6.1814C15.6989 5.80106 16.312 5.78971 16.7062 6.15572L23 12V2C23 1.44771 22.5523 1 22 1ZM2 0C0.895431 0 0 0.895431 0 2V17C0 18.1046 0.89543 19 2 19H22C23.1046 19 24 18.1046 24 17V2C24 0.895431 23.1046 0 22 0H2Z" fill="#8D8D8D" fill-opacity="0.6"/>
<path d="M12 6C12 7.10457 11.1046 8 10 8C8.89543 8 8 7.10457 8 6C8 4.89543 8.89543 4 10 4C11.1046 4 12 4.89543 12 6Z" fill="#8D8D8D" fill-opacity="0.6"/>
</svg>
