<svg width="48" height="42" viewBox="0 0 48 42" fill="none" xmlns="http://www.w3.org/2000/svg">
<path fill-rule="evenodd" clip-rule="evenodd" d="M44 2.21053H4C2.89543 2.21053 2 3.20021 2 4.42105V30.9474L12.5884 20.2196C13.3777 19.4199 14.5969 19.4492 15.3541 20.2861L22.5858 28.279C23.3668 29.1423 24.6332 29.1423 25.4142 28.279L25.5858 28.0894C26.3668 27.2261 26.3668 25.8265 25.5858 24.9632L24.4142 23.6683C23.6332 22.8051 23.6332 21.4055 24.4142 20.5422L30.6372 13.6642C31.3979 12.8234 32.624 12.7983 33.4123 13.6074L46 26.5263V4.42105C46 3.20021 45.1046 2.21053 44 2.21053ZM4 0C1.79086 0 0 1.97937 0 4.42105V37.5789C0 40.0206 1.79086 42 4 42H44C46.2091 42 48 40.0206 48 37.5789V4.42105C48 1.97937 46.2091 0 44 0H4Z" fill="#8D8D8D" fill-opacity="0.6"/>
<path d="M24 13.2632C24 15.7048 22.2091 17.6842 20 17.6842C17.7909 17.6842 16 15.7048 16 13.2632C16 10.8215 17.7909 8.8421 20 8.8421C22.2091 8.8421 24 10.8215 24 13.2632Z" fill="#8D8D8D" fill-opacity="0.6"/>
</svg>
