<svg width="48" height="48" viewBox="0 0 48 48" fill="none" xmlns="http://www.w3.org/2000/svg">
<path d="M20.7272 40.8559L16.3635 38.8559V11.7285C16.3635 9.89148 17.6726 8.25857 19.5272 7.74828L42.4363 2.13514C43.7453 1.82897 45.1635 2.03308 46.2544 2.84954C47.3453 3.666 47.9999 4.78863 47.9999 6.11537V35.1407L43.6363 33.1407V6.11537L20.7272 11.7285V40.8559Z" fill="#8D8D8D"/>
<path d="M10.3636 47.9999C4.58182 47.9999 0 44.8361 0 40.8559C0 36.8757 4.58182 33.7119 10.3636 33.7119C16.1455 33.7119 20.7273 36.8757 20.7273 40.8559C20.7273 44.8361 16.1455 47.9999 10.3636 47.9999ZM10.3636 37.7942C6.98182 37.7942 4.36364 39.4271 4.36364 40.8559C4.36364 42.2847 6.98182 43.9176 10.3636 43.9176C13.7455 43.9176 16.3636 42.2847 16.3636 40.8559C16.3636 39.4271 13.7455 37.7942 10.3636 37.7942Z" fill="#8D8D8D"/>
<path d="M37.6363 42.591C31.8545 42.591 27.2727 39.3252 27.2727 35.0388C27.2727 30.8545 31.8545 27.4866 37.6363 27.4866C43.4182 27.4866 48 30.7524 48 35.0388C48 39.3252 43.4182 42.591 37.6363 42.591ZM37.6363 31.6709C34.4727 31.6709 31.6363 33.3038 31.6363 35.1409C31.6363 36.7738 34.1454 38.6108 37.6363 38.6108C41.1272 38.6108 43.6363 36.7738 43.6363 35.1409C43.6363 33.3038 40.8 31.6709 37.6363 31.6709Z" fill="#8D8D8D"/>
</svg>
