<svg width="48" height="48" viewBox="0 0 48 48" fill="none" xmlns="http://www.w3.org/2000/svg">
<g clip-path="url(#clip0_1183_2)">
<path d="M47.9341 29.5253C47.8827 29.1423 47.5814 28.6618 47.2581 28.3389C46.3323 27.4078 44.2969 26.9197 41.1961 26.8746C39.0946 26.8521 36.5669 27.0398 33.9069 27.4228C32.7165 26.7244 31.4894 25.9585 30.5268 25.0349C27.933 22.5645 25.7727 19.1329 24.4207 15.3559C24.5089 15.0029 24.5824 14.6951 24.6558 14.3797C24.6558 14.3797 26.1107 5.90956 25.7286 3.04114C25.6772 2.65067 25.6405 2.53804 25.5376 2.23017L25.4127 1.89977C25.0159 0.961148 24.237 -0.0300368 23.0172 0.022526L22.2971 0H22.2824C20.9157 0 19.8135 0.713353 19.5196 1.77212C18.6379 5.10611 19.549 10.0996 21.2023 16.5573L20.7761 17.6086C19.5931 20.5671 18.1088 23.5406 16.8009 26.1613L16.6319 26.4992C15.2505 29.255 14.0013 31.5978 12.8624 33.5802L11.6941 34.2109C11.6059 34.256 9.59989 35.3448 9.12962 35.6301C5.13969 38.0705 2.49443 40.8338 2.05355 43.0264C1.91394 43.7323 2.01681 44.6259 2.72956 45.0389L3.86114 45.6245C4.35346 45.8723 4.87516 46 5.40422 46C8.24787 46 11.5471 42.3807 16.0955 34.271C21.3419 32.5289 27.3231 31.0721 32.5622 30.2762C36.5522 32.5664 41.4606 34.1658 44.5614 34.1658C45.1125 34.1658 45.5901 34.1133 45.9722 34.0082C46.5674 33.843 47.0671 33.4975 47.3757 33.032C47.9782 32.1084 48.0958 30.8319 47.9341 29.5253ZM4.78699 43.7999C5.30134 42.3506 7.35877 39.4822 10.3935 36.9442C10.5845 36.7865 11.0548 36.3359 11.481 35.9154C8.30665 41.0891 6.1831 43.1466 4.78699 43.7999ZM22.7601 1.5018C23.6712 1.5018 24.1929 3.8521 24.237 6.05974C24.2811 8.26738 23.7741 9.81423 23.1495 10.9631C22.6278 9.26608 22.378 6.59288 22.378 4.84329C22.378 4.84329 22.3412 1.5018 22.7601 1.5018ZM17.3961 31.6428C18.0353 30.4789 18.6967 29.2475 19.3727 27.9484C21.026 24.7571 22.0694 22.2641 22.8409 20.2142C24.384 23.0826 26.3091 25.523 28.5649 27.4753C28.8515 27.7156 29.1528 27.9634 29.4614 28.2112C24.8689 29.1348 20.8937 30.2687 17.3961 31.6428ZM46.369 31.38C46.0898 31.5527 45.2889 31.6579 44.7745 31.6579C43.1139 31.6579 41.0491 30.8844 38.1614 29.6154C39.2709 29.5328 40.2923 29.4878 41.2034 29.4878C42.8714 29.4878 43.3637 29.4802 45.0023 29.9083C46.6335 30.3363 46.6556 31.1998 46.369 31.38Z" fill="#8D8D8D" fill-opacity="0.6"/>
</g>
<defs>
<clipPath id="clip0_1183_2">
<rect width="48" height="48" fill="white"/>
</clipPath>
</defs>
</svg>
