<svg width="48" height="48" viewBox="0 0 48 48" fill="none" xmlns="http://www.w3.org/2000/svg">
<g clip-path="url(#clip0_1183_8)">
<path d="M1 7.26087H22.8182V11.4348H1V7.26087Z" fill="#8D8D8D" fill-opacity="0.6"/>
<path d="M1 13.5217H22.8182V17.6957H1V13.5217Z" fill="#8D8D8D" fill-opacity="0.6"/>
<path d="M1 19.7826H22.8182V23.9565H1V19.7826Z" fill="#8D8D8D" fill-opacity="0.6"/>
<path d="M1 26.0435H22.8182V30.2174H1V26.0435Z" fill="#8D8D8D" fill-opacity="0.6"/>
<path d="M1 32.3043H22.8182V36.4783H1V32.3043Z" fill="#8D8D8D" fill-opacity="0.6"/>
<path d="M1 38.5652H22.8182V42.7391H1V38.5652Z" fill="#8D8D8D" fill-opacity="0.6"/>
<path d="M1 44.8261H22.8182V49H1V44.8261Z" fill="#8D8D8D" fill-opacity="0.6"/>
<path d="M27.1818 44.8261H49V49H27.1818V44.8261Z" fill="#8D8D8D" fill-opacity="0.6"/>
<path d="M27.1818 1H49V5.17391H27.1818V1Z" fill="#8D8D8D" fill-opacity="0.6"/>
<path d="M27.1818 7.26087H49V11.4348H27.1818V7.26087Z" fill="#8D8D8D" fill-opacity="0.6"/>
<path d="M27.1818 13.5217H49V17.6957H27.1818V13.5217Z" fill="#8D8D8D" fill-opacity="0.6"/>
<path d="M27.1818 19.7826H49V23.9565H27.1818V19.7826Z" fill="#8D8D8D" fill-opacity="0.6"/>
<path d="M27.1818 26.0435H49V30.2174H27.1818V26.0435Z" fill="#8D8D8D" fill-opacity="0.6"/>
<path d="M27.1818 32.3043H49V36.4783H27.1818V32.3043Z" fill="#8D8D8D" fill-opacity="0.6"/>
<path d="M27.1818 38.5652H49V42.7391H27.1818V38.5652Z" fill="#8D8D8D" fill-opacity="0.6"/>
</g>
<defs>
<clipPath id="clip0_1183_8">
<rect width="48" height="48" fill="white"/>
</clipPath>
</defs>
</svg>
