<svg width="48" height="48" viewBox="0 0 48 48" fill="none" xmlns="http://www.w3.org/2000/svg">
<path fill-rule="evenodd" clip-rule="evenodd" d="M6 4C6 3.44772 6.47259 3 7.05556 3H41.9444C42.5274 3 43 3.44772 43 4C43 4.55228 42.5274 5 41.9444 5H7.05556C6.47259 5 6 4.55228 6 4Z" fill="#8D8D8D"/>
<path fill-rule="evenodd" clip-rule="evenodd" d="M6 12C6 11.4477 6.47259 11 7.05556 11H41.9444C42.5274 11 43 11.4477 43 12C43 12.5523 42.5274 13 41.9444 13H7.05556C6.47259 13 6 12.5523 6 12Z" fill="#8D8D8D"/>
<path fill-rule="evenodd" clip-rule="evenodd" d="M6 28C6 27.4477 6.47259 27 7.05556 27H41.9444C42.5274 27 43 27.4477 43 28C43 28.5523 42.5274 29 41.9444 29H7.05556C6.47259 29 6 28.5523 6 28Z" fill="#8D8D8D"/>
<path fill-rule="evenodd" clip-rule="evenodd" d="M6 36C6 35.4477 6.47259 35 7.05556 35H41.9444C42.5274 35 43 35.4477 43 36C43 36.5523 42.5274 37 41.9444 37H7.05556C6.47259 37 6 36.5523 6 36Z" fill="#8D8D8D"/>
<path fill-rule="evenodd" clip-rule="evenodd" d="M6 20C6 19.4477 6.47259 19 7.05556 19H41.9444C42.5274 19 43 19.4477 43 20C43 20.5523 42.5274 21 41.9444 21H7.05556C6.47259 21 6 20.5523 6 20Z" fill="#8D8D8D"/>
<path fill-rule="evenodd" clip-rule="evenodd" d="M6 44C6 43.4477 6.47259 43 7.05556 43H21.3889C21.9719 43 22.4444 43.4477 22.4444 44C22.4444 44.5523 21.9719 45 21.3889 45H7.05556C6.47259 45 6 44.5523 6 44Z" fill="#8D8D8D"/>
</svg>
