<svg width="48" height="48" viewBox="0 0 48 48" fill="none" xmlns="http://www.w3.org/2000/svg">
<path fill-rule="evenodd" clip-rule="evenodd" d="M3 3.04762C3 2.46904 3.54922 2 4.22673 2H25.6622C26.3397 2 26.8889 2.46904 26.8889 3.04762C26.8889 3.6262 26.3397 4.09524 25.6622 4.09524H4.22673C3.54922 4.09524 3 3.6262 3 3.04762Z" fill="#8D8D8D"/>
<path fill-rule="evenodd" clip-rule="evenodd" d="M3 11.4286C3 10.85 3.54922 10.381 4.22673 10.381H25.6622C26.3397 10.381 26.8889 10.85 26.8889 11.4286C26.8889 12.0072 26.3397 12.4762 25.6622 12.4762H4.22673C3.54922 12.4762 3 12.0072 3 11.4286Z" fill="#8D8D8D"/>
<path fill-rule="evenodd" clip-rule="evenodd" d="M3 28.1905C3 27.6119 3.54922 27.1429 4.22673 27.1429H44.7733C45.4508 27.1429 46 27.6119 46 28.1905C46 28.7691 45.4508 29.2381 44.7733 29.2381H4.22673C3.54922 29.2381 3 28.7691 3 28.1905Z" fill="#8D8D8D"/>
<path fill-rule="evenodd" clip-rule="evenodd" d="M3 36.5714C3 35.9928 3.54922 35.5238 4.22673 35.5238H44.7733C45.4508 35.5238 46 35.9928 46 36.5714C46 37.15 45.4508 37.619 44.7733 37.619H4.22673C3.54922 37.619 3 37.15 3 36.5714Z" fill="#8D8D8D"/>
<path fill-rule="evenodd" clip-rule="evenodd" d="M3 19.8095C3 19.2309 3.54922 18.7619 4.22673 18.7619H25.6622C26.3397 18.7619 26.8889 19.2309 26.8889 19.8095C26.8889 20.3881 26.3397 20.8571 25.6622 20.8571H4.22673C3.54922 20.8571 3 20.3881 3 19.8095Z" fill="#8D8D8D"/>
<path fill-rule="evenodd" clip-rule="evenodd" d="M3 44.9524C3 44.3738 3.54922 43.9048 4.22673 43.9048H20.8844C21.5619 43.9048 22.1111 44.3738 22.1111 44.9524C22.1111 45.531 21.5619 46 20.8844 46H4.22673C3.54922 46 3 45.531 3 44.9524Z" fill="#8D8D8D"/>
<path d="M29 4.11111C29 2.94518 29.8457 2 30.8889 2H44.1111C45.1543 2 46 2.94518 46 4.11111V18.8889C46 20.0548 45.1543 21 44.1111 21H30.8889C29.8457 21 29 20.0548 29 18.8889V4.11111Z" fill="#8D8D8D"/>
</svg>
