<svg width="8" height="39" viewBox="0 0 8 39" fill="none" xmlns="http://www.w3.org/2000/svg">
<path d="M7.61909 34.0737H3.80957V36.5369H7.61909V34.0737Z" fill="#8D8D8D"/>
<path d="M3.80952 36.5367H0V38.9999H3.80952V36.5367Z" fill="#8D8D8D"/>
<path d="M7.61909 29.1475H3.80957V31.6106H7.61909V29.1475Z" fill="#8D8D8D"/>
<path d="M3.80952 31.6106H0V34.0738H3.80952V31.6106Z" fill="#8D8D8D"/>
<path d="M7.61909 24.2211H3.80957V26.6842H7.61909V24.2211Z" fill="#8D8D8D"/>
<path d="M3.80952 26.6842H0V29.1474H3.80952V26.6842Z" fill="#8D8D8D"/>
<path d="M7.61909 19.2947H3.80957V21.7578H7.61909V19.2947Z" fill="#8D8D8D"/>
<path d="M3.80952 21.7578H0V24.221H3.80952V21.7578Z" fill="#8D8D8D"/>
<path d="M7.61909 14.3685H3.80957V16.8317H7.61909V14.3685Z" fill="#8D8D8D"/>
<path d="M3.80952 16.8317H0V19.2948H3.80952V16.8317Z" fill="#8D8D8D"/>
<path d="M7.238 0H1.14276C0.723717 0 0.380859 0.369474 0.380859 0.821053V11.0842C0.380859 11.5358 0.723717 11.9053 1.14276 11.9053H7.238C7.65705 11.9053 7.99991 11.5358 7.99991 11.0842V0.821053C7.99991 0.369474 7.65705 0 7.238 0ZM6.09515 6.56842H2.28562V2.05263H6.09515V6.56842Z" fill="#8D8D8D"/>
</svg>
