<svg width="24" height="24" viewBox="0 0 24 24" fill="none" xmlns="http://www.w3.org/2000/svg">
<path d="M10.3636 20.428L8.18176 19.428V5.86426C8.18176 4.94574 8.83631 4.12928 9.76358 3.87414L21.2181 1.06757C21.8727 0.914484 22.5818 1.01654 23.1272 1.42477C23.6727 1.833 23.9999 2.39431 23.9999 3.05768V17.5704L21.8181 16.5704V3.05768L10.3636 5.86426V20.428Z" fill="#8D8D8D"/>
<path d="M5.18182 24C2.29091 24 0 22.4181 0 20.428C0 18.4379 2.29091 16.856 5.18182 16.856C8.07273 16.856 10.3636 18.4379 10.3636 20.428C10.3636 22.4181 8.07273 24 5.18182 24ZM5.18182 18.8972C3.49091 18.8972 2.18182 19.7136 2.18182 20.428C2.18182 21.1424 3.49091 21.9589 5.18182 21.9589C6.87273 21.9589 8.18182 21.1424 8.18182 20.428C8.18182 19.7136 6.87273 18.8972 5.18182 18.8972Z" fill="#8D8D8D"/>
<path d="M18.8182 21.2955C15.9273 21.2955 13.6364 19.6626 13.6364 17.5194C13.6364 15.4272 15.9273 13.7433 18.8182 13.7433C21.7091 13.7433 24 15.3762 24 17.5194C24 19.6626 21.7091 21.2955 18.8182 21.2955ZM18.8182 15.8355C17.2364 15.8355 15.8182 16.6519 15.8182 17.5704C15.8182 18.3869 17.0727 19.3054 18.8182 19.3054C20.5636 19.3054 21.8182 18.3869 21.8182 17.5704C21.8182 16.6519 20.4 15.8355 18.8182 15.8355Z" fill="#8D8D8D"/>
</svg>
