<svg width="24" height="24" viewBox="0 0 24 24" fill="none" xmlns="http://www.w3.org/2000/svg">
<path d="M23.9671 14.7626C23.9413 14.5712 23.7907 14.3309 23.6291 14.1694C23.1661 13.7039 22.1485 13.4598 20.598 13.4373C19.5473 13.4261 18.2834 13.5199 16.9535 13.7114C16.3583 13.3622 15.7447 12.9793 15.2634 12.5175C13.9665 11.2822 12.8864 9.56644 12.2104 7.67793C12.2544 7.50147 12.2912 7.34753 12.3279 7.18985C12.3279 7.18985 13.0554 2.95478 12.8643 1.52057C12.8386 1.32533 12.8202 1.26902 12.7688 1.11508L12.7063 0.949885C12.5079 0.480574 12.1185 -0.0150184 11.5086 0.011263L11.1486 0H11.1412C10.4579 0 9.90677 0.356677 9.75981 0.88606C9.31893 2.55305 9.77451 5.04979 10.6012 8.27865L10.3881 8.80428C9.79655 10.2835 9.05441 11.7703 8.40044 13.0806L8.31594 13.2496C7.62523 14.6275 7.00066 15.7989 6.43119 16.7901L5.84703 17.1054C5.80294 17.128 4.79995 17.6724 4.56481 17.815C2.56984 19.0353 1.24721 20.4169 1.02677 21.5132C0.956969 21.8661 1.0084 22.3129 1.36478 22.5194L1.93057 22.8123C2.17673 22.9362 2.43758 23 2.70211 23C4.12394 23 5.77355 21.1903 8.04774 17.1355C10.671 16.2644 13.6616 15.5361 16.2811 15.1381C18.2761 16.2832 20.7303 17.0829 22.2807 17.0829C22.5563 17.0829 22.7951 17.0566 22.9861 17.0041C23.2837 16.9215 23.5335 16.7488 23.6878 16.516C23.9891 16.0542 24.0479 15.4159 23.9671 14.7626ZM2.39349 21.8999C2.65067 21.1753 3.67938 19.7411 5.19673 18.4721C5.29226 18.3932 5.52739 18.168 5.74048 17.9577C4.15333 20.5446 3.09155 21.5733 2.39349 21.8999ZM11.38 0.750898C11.8356 0.750898 12.0965 1.92605 12.1185 3.02987C12.1405 4.13369 11.887 4.90712 11.5748 5.48155C11.3139 4.63304 11.189 3.29644 11.189 2.42165C11.189 2.42165 11.1706 0.750898 11.38 0.750898ZM8.69803 15.8214C9.01767 15.2395 9.34833 14.6237 9.68633 13.9742C10.513 12.3786 11.0347 11.1321 11.4204 10.1071C12.192 11.5413 13.1546 12.7615 14.2825 13.7377C14.4258 13.8578 14.5764 13.9817 14.7307 14.1056C12.4345 14.5674 10.4468 15.1343 8.69803 15.8214ZM23.1845 15.69C23.0449 15.7764 22.6444 15.8289 22.3873 15.8289C21.5569 15.8289 20.5246 15.4422 19.0807 14.8077C19.6355 14.7664 20.1461 14.7439 20.6017 14.7439C21.4357 14.7439 21.6819 14.7401 22.5012 14.9541C23.3168 15.1681 23.3278 15.5999 23.1845 15.69Z" fill="#8D8D8D"/>
</svg>
