<svg width="23" height="23" viewBox="0 0 23 23" fill="none" xmlns="http://www.w3.org/2000/svg">
<path d="M22.9671 14.7626C22.9413 14.5712 22.7907 14.3309 22.6291 14.1694C22.1661 13.7039 21.1485 13.4598 19.598 13.4373C18.5473 13.4261 17.2834 13.5199 15.9535 13.7114C15.3583 13.3622 14.7447 12.9793 14.2634 12.5175C12.9665 11.2822 11.8864 9.56644 11.2104 7.67793C11.2544 7.50147 11.2912 7.34753 11.3279 7.18985C11.3279 7.18985 12.0554 2.95478 11.8643 1.52057C11.8386 1.32533 11.8202 1.26902 11.7688 1.11508L11.7063 0.949885C11.5079 0.480574 11.1185 -0.0150184 10.5086 0.011263L10.1486 0H10.1412C9.45787 0 8.90677 0.356677 8.75981 0.88606C8.31893 2.55305 8.77451 5.04979 9.60115 8.27865L9.38806 8.80428C8.79655 10.2835 8.05441 11.7703 7.40044 13.0806L7.31594 13.2496C6.62523 14.6275 6.00066 15.7989 5.43119 16.7901L4.84703 17.1054C4.80294 17.128 3.79995 17.6724 3.56481 17.815C1.56984 19.0353 0.247213 20.4169 0.0267749 21.5132C-0.0430306 21.8661 0.0084044 22.3129 0.36478 22.5194L0.930572 22.8123C1.17673 22.9362 1.43758 23 1.70211 23C3.12394 23 4.77355 21.1903 7.04774 17.1355C9.67096 16.2644 12.6616 15.5361 15.2811 15.1381C17.2761 16.2832 19.7303 17.0829 21.2807 17.0829C21.5563 17.0829 21.7951 17.0566 21.9861 17.0041C22.2837 16.9215 22.5335 16.7488 22.6878 16.516C22.9891 16.0542 23.0479 15.4159 22.9671 14.7626ZM1.39349 21.8999C1.65067 21.1753 2.67938 19.7411 4.19673 18.4721C4.29226 18.3932 4.52739 18.168 4.74048 17.9577C3.15333 20.5446 2.09155 21.5733 1.39349 21.8999ZM10.38 0.750898C10.8356 0.750898 11.0965 1.92605 11.1185 3.02987C11.1405 4.13369 10.887 4.90712 10.5748 5.48155C10.3139 4.63304 10.189 3.29644 10.189 2.42165C10.189 2.42165 10.1706 0.750898 10.38 0.750898ZM7.69803 15.8214C8.01767 15.2395 8.34833 14.6237 8.68633 13.9742C9.51298 12.3786 10.0347 11.1321 10.4204 10.1071C11.192 11.5413 12.1546 12.7615 13.2825 13.7377C13.4258 13.8578 13.5764 13.9817 13.7307 14.1056C11.4345 14.5674 9.44684 15.1343 7.69803 15.8214ZM22.1845 15.69C22.0449 15.7764 21.6444 15.8289 21.3873 15.8289C20.5569 15.8289 19.5246 15.4422 18.0807 14.8077C18.6355 14.7664 19.1461 14.7439 19.6017 14.7439C20.4357 14.7439 20.6819 14.7401 21.5012 14.9541C22.3168 15.1681 22.3278 15.5999 22.1845 15.69Z" fill="#8D8D8D" fill-opacity="0.6"/>
</svg>
