<svg width="24" height="24" viewBox="0 0 24 24" fill="none" xmlns="http://www.w3.org/2000/svg">
<path fill-rule="evenodd" clip-rule="evenodd" d="M3 2.5C3 2.22386 3.22991 2 3.51351 2H20.4865C20.7701 2 21 2.22386 21 2.5C21 2.77614 20.7701 3 20.4865 3H3.51351C3.22991 3 3 2.77614 3 2.5Z" fill="#8D8D8D"/>
<path fill-rule="evenodd" clip-rule="evenodd" d="M3 6.5C3 6.22386 3.22991 6 3.51351 6H20.4865C20.7701 6 21 6.22386 21 6.5C21 6.77614 20.7701 7 20.4865 7H3.51351C3.22991 7 3 6.77614 3 6.5Z" fill="#8D8D8D"/>
<path fill-rule="evenodd" clip-rule="evenodd" d="M3 14.5C3 14.2239 3.22991 14 3.51351 14H20.4865C20.7701 14 21 14.2239 21 14.5C21 14.7761 20.7701 15 20.4865 15H3.51351C3.22991 15 3 14.7761 3 14.5Z" fill="#8D8D8D"/>
<path fill-rule="evenodd" clip-rule="evenodd" d="M3 18.5C3 18.2239 3.22991 18 3.51351 18H20.4865C20.7701 18 21 18.2239 21 18.5C21 18.7761 20.7701 19 20.4865 19H3.51351C3.22991 19 3 18.7761 3 18.5Z" fill="#8D8D8D"/>
<path fill-rule="evenodd" clip-rule="evenodd" d="M3 10.5C3 10.2239 3.22991 10 3.51351 10H20.4865C20.7701 10 21 10.2239 21 10.5C21 10.7761 20.7701 11 20.4865 11H3.51351C3.22991 11 3 10.7761 3 10.5Z" fill="#8D8D8D"/>
<path fill-rule="evenodd" clip-rule="evenodd" d="M3 22.5C3 22.2239 3.22991 22 3.51351 22H10.4865C10.7701 22 11 22.2239 11 22.5C11 22.7761 10.7701 23 10.4865 23H3.51351C3.22991 23 3 22.7761 3 22.5Z" fill="#8D8D8D"/>
</svg>
