<svg width="24" height="24" viewBox="0 0 24 24" fill="none" xmlns="http://www.w3.org/2000/svg">
<path d="M1 4H11V6H1V4Z" fill="#8D8D8D" fill-opacity="0.6"/>
<path d="M1 7H11V9H1V7Z" fill="#8D8D8D" fill-opacity="0.6"/>
<path d="M1 10H11V12H1V10Z" fill="#8D8D8D" fill-opacity="0.6"/>
<path d="M1 13H11V15H1V13Z" fill="#8D8D8D" fill-opacity="0.6"/>
<path d="M1 16H11V18H1V16Z" fill="#8D8D8D" fill-opacity="0.6"/>
<path d="M1 19H11V21H1V19Z" fill="#8D8D8D" fill-opacity="0.6"/>
<path d="M1 22H11V24H1V22Z" fill="#8D8D8D" fill-opacity="0.6"/>
<path d="M13 22H23V24H13V22Z" fill="#8D8D8D" fill-opacity="0.6"/>
<path d="M13 1H23V3H13V1Z" fill="#8D8D8D" fill-opacity="0.6"/>
<path d="M13 4H23V6H13V4Z" fill="#8D8D8D" fill-opacity="0.6"/>
<path d="M13 7H23V9H13V7Z" fill="#8D8D8D" fill-opacity="0.6"/>
<path d="M13 10H23V12H13V10Z" fill="#8D8D8D" fill-opacity="0.6"/>
<path d="M13 13H23V15H13V13Z" fill="#8D8D8D" fill-opacity="0.6"/>
<path d="M13 16H23V18H13V16Z" fill="#8D8D8D" fill-opacity="0.6"/>
<path d="M13 19H23V21H13V19Z" fill="#8D8D8D" fill-opacity="0.6"/>
</svg>
