<svg width="5" height="23" viewBox="0 0 5 23" fill="none" xmlns="http://www.w3.org/2000/svg">
<path d="M4.76193 19.762H2.38098V21.1905H4.76193V19.762Z" fill="#8D8D8D"/>
<path d="M2.38095 21.1904H0V22.619H2.38095V21.1904Z" fill="#8D8D8D"/>
<path d="M4.76193 16.9048H2.38098V18.3334H4.76193V16.9048Z" fill="#8D8D8D"/>
<path d="M2.38095 18.3334H0V19.7619H2.38095V18.3334Z" fill="#8D8D8D"/>
<path d="M4.76193 14.0476H2.38098V15.4762H4.76193V14.0476Z" fill="#8D8D8D"/>
<path d="M2.38095 15.4762H0V16.9048H2.38095V15.4762Z" fill="#8D8D8D"/>
<path d="M4.76193 11.1904H2.38098V12.619H4.76193V11.1904Z" fill="#8D8D8D"/>
<path d="M2.38095 12.619H0V14.0476H2.38095V12.619Z" fill="#8D8D8D"/>
<path d="M4.76193 8.33337H2.38098V9.76195H4.76193V8.33337Z" fill="#8D8D8D"/>
<path d="M2.38095 9.76196H0V11.1905H2.38095V9.76196Z" fill="#8D8D8D"/>
<path d="M4.52375 0H0.714228C0.452323 0 0.238037 0.214286 0.238037 0.47619V6.42857C0.238037 6.69048 0.452323 6.90476 0.714228 6.90476H4.52375C4.78566 6.90476 4.99994 6.69048 4.99994 6.42857V0.47619C4.99994 0.214286 4.78566 0 4.52375 0ZM3.80947 3.80952H1.42851V1.19048H3.80947V3.80952Z" fill="#8D8D8D"/>
</svg>
